# xmcd CD database file
#
# Track frame offsets:
#	150
#	19692
#	42262
#	53588
#	74006
#	99820
#	121243
#	143338
#	158793
#	180766
#	214579
#	242456
#	269757
#	292229
#	318956
#
# Disc length: 4737 seconds
#
# Revision: 0
# Processed by: cddbd v1.5.2PL0 Copyright (c) Steve Scherf et al.
# Submitted via: CDex 1.51
#
DISCID=c9127f0f
DTITLE=Bob Brookmeyer - 4 Classik Albums CD2
DYEAR=1900
DGENRE=Jazz
TTITLE0=Confusion Blues
TTITLE1=Mr. Moon
TTITLE2=I Hear A Rhapsody
TTITLE3=The Chant
TTITLE4=Blues
TTITLE5=Zoot´s Tune
TTITLE6=How Long Has This Been Going On
TTITLE7=Booby´s Tune
TTITLE8=Blues Skies
TTITLE9=Languid Blues
TTITLE10=On The Sunny Side Of The Street
TTITLE11=Stoppin´ At The Savoy
TTITLE12=I Got Rhythm
TTITLE13=Smoke Gets In Vour Eyes
TTITLE14=Hot And Cold Blues
EXTD=
EXTT0=
EXTT1=
EXTT2=
EXTT3=
EXTT4=
EXTT5=
EXTT6=
EXTT7=
EXTT8=
EXTT9=
EXTT10=
EXTT11=
EXTT12=
EXTT13=
EXTT14=
PLAYORDER=
